G04 MADE WITH FRITZING*
G04 WWW.FRITZING.ORG*
G04 DOUBLE SIDED*
G04 HOLES PLATED*
G04 CONTOUR ON CENTER OF CONTOUR VECTOR*
%ASAXBY*%
%FSLAX23Y23*%
%MOIN*%
%OFA0B0*%
%SFA1.0B1.0*%
%ADD10C,0.075000*%
%ADD11C,0.082000*%
%ADD12C,0.244000*%
%ADD13C,0.074000*%
%ADD14R,0.082000X0.082000*%
%ADD15R,0.074803X0.062992*%
%ADD16C,0.024000*%
%ADD17C,0.032000*%
%ADD18C,0.048000*%
%ADD19C,0.020000*%
%LNCOPPER1*%
G90*
G70*
G54D10*
X1573Y3286D03*
X1273Y3286D03*
X1273Y2286D03*
X1573Y2286D03*
X1273Y1286D03*
X1573Y1286D03*
G54D11*
X1373Y586D03*
X1373Y886D03*
G54D12*
X2273Y1886D03*
X2273Y1886D03*
X373Y5686D03*
X373Y5686D03*
X273Y3386D03*
X273Y3386D03*
X2273Y1386D03*
X2273Y1386D03*
X273Y886D03*
X273Y886D03*
X273Y2886D03*
X273Y2886D03*
X273Y2386D03*
X273Y2386D03*
X273Y3886D03*
X273Y3886D03*
X2273Y3386D03*
X2273Y3386D03*
X2273Y886D03*
X2273Y886D03*
X2273Y2886D03*
X2273Y2886D03*
X273Y1386D03*
X273Y1386D03*
X2273Y3886D03*
X2273Y3886D03*
X273Y1886D03*
X273Y1886D03*
X273Y386D03*
X273Y386D03*
X2273Y386D03*
X2273Y386D03*
G54D11*
X1373Y3586D03*
X1373Y3886D03*
X1373Y1586D03*
X1373Y1886D03*
X1373Y2586D03*
X1373Y2886D03*
G54D13*
X2073Y4278D03*
X1973Y4286D03*
X1873Y4278D03*
X1773Y4286D03*
X1673Y4278D03*
X1573Y4286D03*
X1473Y4278D03*
X1373Y4286D03*
X1273Y4278D03*
X1173Y4286D03*
X1073Y4278D03*
X973Y4286D03*
X2073Y4278D03*
X1973Y4286D03*
X1873Y4278D03*
X1773Y4286D03*
X1673Y4278D03*
X1573Y4286D03*
X1473Y4278D03*
X1373Y4286D03*
X1273Y4278D03*
X1173Y4286D03*
X1073Y4278D03*
X973Y4286D03*
X2073Y5278D03*
X1973Y5286D03*
X1873Y5278D03*
X1773Y5286D03*
X1673Y5278D03*
X1573Y5286D03*
X1473Y5278D03*
X1373Y5286D03*
X1273Y5278D03*
X1173Y5286D03*
X1073Y5278D03*
X973Y5286D03*
X2073Y5278D03*
X1973Y5286D03*
X1873Y5278D03*
X1773Y5286D03*
X1673Y5278D03*
X1573Y5286D03*
X1473Y5278D03*
X1373Y5286D03*
X1273Y5278D03*
X1173Y5286D03*
X1073Y5278D03*
X973Y5286D03*
X2073Y5378D03*
X1973Y5386D03*
X1873Y5378D03*
X1773Y5386D03*
X1673Y5378D03*
X1573Y5386D03*
X1473Y5378D03*
X1373Y5386D03*
X1273Y5378D03*
X1173Y5386D03*
X1073Y5378D03*
X973Y5386D03*
X2073Y5378D03*
X1973Y5386D03*
X1873Y5378D03*
X1773Y5386D03*
X1673Y5378D03*
X1573Y5386D03*
X1473Y5378D03*
X1373Y5386D03*
X1273Y5378D03*
X1173Y5386D03*
X1073Y5378D03*
X973Y5386D03*
X973Y5194D03*
X1073Y5186D03*
X1173Y5194D03*
X1273Y5186D03*
X1373Y5194D03*
X1473Y5186D03*
X1573Y5194D03*
X1673Y5186D03*
X1773Y5194D03*
X1873Y5186D03*
X1973Y5194D03*
X2073Y5186D03*
X973Y5194D03*
X1073Y5186D03*
X1173Y5194D03*
X1273Y5186D03*
X1373Y5194D03*
X1473Y5186D03*
X1573Y5194D03*
X1673Y5186D03*
X1773Y5194D03*
X1873Y5186D03*
X1973Y5194D03*
X2073Y5186D03*
X2073Y5078D03*
X1973Y5086D03*
X1873Y5078D03*
X1773Y5086D03*
X1673Y5078D03*
X1573Y5086D03*
X1473Y5078D03*
X1373Y5086D03*
X1273Y5078D03*
X1173Y5086D03*
X1073Y5078D03*
X973Y5086D03*
X2073Y5078D03*
X1973Y5086D03*
X1873Y5078D03*
X1773Y5086D03*
X1673Y5078D03*
X1573Y5086D03*
X1473Y5078D03*
X1373Y5086D03*
X1273Y5078D03*
X1173Y5086D03*
X1073Y5078D03*
X973Y5086D03*
X2073Y4978D03*
X1973Y4986D03*
X1873Y4978D03*
X1773Y4986D03*
X1673Y4978D03*
X1573Y4986D03*
X1473Y4978D03*
X1373Y4986D03*
X1273Y4978D03*
X1173Y4986D03*
X1073Y4978D03*
X973Y4986D03*
X2073Y4978D03*
X1973Y4986D03*
X1873Y4978D03*
X1773Y4986D03*
X1673Y4978D03*
X1573Y4986D03*
X1473Y4978D03*
X1373Y4986D03*
X1273Y4978D03*
X1173Y4986D03*
X1073Y4978D03*
X973Y4986D03*
X1773Y4878D03*
X1673Y4886D03*
X1573Y4878D03*
X1473Y4886D03*
X1373Y4878D03*
X1273Y4886D03*
X1173Y4878D03*
X1073Y4886D03*
X973Y4878D03*
X873Y4886D03*
X773Y4878D03*
X673Y4886D03*
X1773Y4878D03*
X1673Y4886D03*
X1573Y4878D03*
X1473Y4886D03*
X1373Y4878D03*
X1273Y4886D03*
X1173Y4878D03*
X1073Y4886D03*
X973Y4878D03*
X873Y4886D03*
X773Y4878D03*
X673Y4886D03*
X2073Y4378D03*
X1973Y4386D03*
X1873Y4378D03*
X1773Y4386D03*
X1673Y4378D03*
X1573Y4386D03*
X1473Y4378D03*
X1373Y4386D03*
X1273Y4378D03*
X1173Y4386D03*
X1073Y4378D03*
X973Y4386D03*
X2073Y4378D03*
X1973Y4386D03*
X1873Y4378D03*
X1773Y4386D03*
X1673Y4378D03*
X1573Y4386D03*
X1473Y4378D03*
X1373Y4386D03*
X1273Y4378D03*
X1173Y4386D03*
X1073Y4378D03*
X973Y4386D03*
X1973Y4478D03*
X1873Y4486D03*
X1773Y4478D03*
X1673Y4486D03*
X1573Y4478D03*
X1473Y4486D03*
X1373Y4478D03*
X1273Y4486D03*
X1173Y4478D03*
X1073Y4486D03*
X973Y4478D03*
X873Y4486D03*
X1973Y4478D03*
X1873Y4486D03*
X1773Y4478D03*
X1673Y4486D03*
X1573Y4478D03*
X1473Y4486D03*
X1373Y4478D03*
X1273Y4486D03*
X1173Y4478D03*
X1073Y4486D03*
X973Y4478D03*
X873Y4486D03*
G54D12*
X2273Y2386D03*
X2273Y2386D03*
G54D13*
X1966Y5686D03*
X2073Y5686D03*
X2180Y5686D03*
X1966Y5686D03*
X2073Y5686D03*
X2180Y5686D03*
G54D14*
X1373Y2586D03*
G54D15*
X2373Y5164D03*
X2373Y5286D03*
X2373Y4764D03*
X2373Y4886D03*
G54D16*
X971Y4583D02*
X1977Y4586D01*
D02*
X972Y4506D02*
X971Y4583D01*
D02*
X1977Y4586D02*
X1974Y4414D01*
G54D17*
D02*
X1973Y3986D02*
X1973Y4286D01*
D02*
X1973Y3786D02*
X1973Y3986D01*
D02*
X1404Y3596D02*
X1973Y3786D01*
G54D18*
D02*
X1415Y3577D02*
X2178Y3407D01*
D02*
X1331Y3578D02*
X369Y3403D01*
D02*
X1337Y2610D02*
X1073Y2786D01*
D02*
X1073Y3386D02*
X1337Y3562D01*
D02*
X1073Y2786D02*
X1073Y3386D01*
D02*
X369Y2403D02*
X1331Y2578D01*
D02*
X2178Y2407D02*
X1373Y2586D01*
D02*
X1373Y2586D02*
X1373Y2629D01*
D02*
X1073Y2386D02*
X1073Y1786D01*
D02*
X1073Y1786D02*
X1337Y1610D01*
D02*
X1337Y2562D02*
X1073Y2386D01*
D02*
X1415Y1577D02*
X2178Y1407D01*
D02*
X369Y1403D02*
X1331Y1578D01*
D02*
X1341Y580D02*
X358Y401D01*
D02*
X2189Y405D02*
X1404Y579D01*
D02*
X1073Y786D02*
X1073Y1286D01*
D02*
X1073Y1286D02*
X1342Y1555D01*
D02*
X1346Y604D02*
X1073Y786D01*
G54D16*
D02*
X2073Y4586D02*
X2373Y4586D01*
D02*
X2373Y4586D02*
X2373Y4738D01*
D02*
X1977Y4586D02*
X2073Y4586D01*
D02*
X2373Y4912D02*
X2373Y5138D01*
D02*
X2211Y5686D02*
X2373Y5686D01*
D02*
X2373Y5686D02*
X2373Y5312D01*
G54D19*
X1342Y617D02*
X1404Y617D01*
X1404Y555D01*
X1342Y555D01*
X1342Y617D01*
D02*
X1342Y3617D02*
X1404Y3617D01*
X1404Y3555D01*
X1342Y3555D01*
X1342Y3617D01*
D02*
X1342Y1617D02*
X1404Y1617D01*
X1404Y1555D01*
X1342Y1555D01*
X1342Y1617D01*
D02*
G04 End of Copper1*
M02*