G04 MADE WITH FRITZING*
G04 WWW.FRITZING.ORG*
G04 DOUBLE SIDED*
G04 HOLES PLATED*
G04 CONTOUR ON CENTER OF CONTOUR VECTOR*
%ASAXBY*%
%FSLAX23Y23*%
%MOIN*%
%OFA0B0*%
%SFA1.0B1.0*%
%ADD10C,0.075000*%
%ADD11C,0.082000*%
%ADD12C,0.244000*%
%ADD13C,0.074000*%
%ADD14R,0.082000X0.082000*%
%ADD15R,0.062992X0.074803*%
%ADD16C,0.024000*%
%ADD17C,0.048000*%
%ADD18C,0.020000*%
%LNCOPPER0*%
G90*
G70*
G54D10*
X1573Y3286D03*
X1273Y3286D03*
X1273Y2286D03*
X1573Y2286D03*
X1273Y1286D03*
X1573Y1286D03*
G54D11*
X1373Y586D03*
X1373Y886D03*
G54D12*
X2273Y2386D03*
X2273Y1886D03*
X373Y5686D03*
X273Y3386D03*
X2273Y1386D03*
X273Y886D03*
X273Y2886D03*
X273Y2386D03*
X273Y3886D03*
X2273Y3386D03*
X2273Y886D03*
X2273Y2886D03*
X273Y1386D03*
X2273Y3886D03*
X273Y1886D03*
X273Y386D03*
X2273Y386D03*
G54D11*
X1373Y3586D03*
X1373Y3886D03*
X1373Y1586D03*
X1373Y1886D03*
X1373Y2586D03*
X1373Y2886D03*
G54D13*
X2073Y4278D03*
X1973Y4286D03*
X1873Y4278D03*
X1773Y4286D03*
X1673Y4278D03*
X1573Y4286D03*
X1473Y4278D03*
X1373Y4286D03*
X1273Y4278D03*
X1173Y4286D03*
X1073Y4278D03*
X973Y4286D03*
X2073Y5278D03*
X1973Y5286D03*
X1873Y5278D03*
X1773Y5286D03*
X1673Y5278D03*
X1573Y5286D03*
X1473Y5278D03*
X1373Y5286D03*
X1273Y5278D03*
X1173Y5286D03*
X1073Y5278D03*
X973Y5286D03*
X2073Y5378D03*
X1973Y5386D03*
X1873Y5378D03*
X1773Y5386D03*
X1673Y5378D03*
X1573Y5386D03*
X1473Y5378D03*
X1373Y5386D03*
X1273Y5378D03*
X1173Y5386D03*
X1073Y5378D03*
X973Y5386D03*
X973Y5194D03*
X1073Y5186D03*
X1173Y5194D03*
X1273Y5186D03*
X1373Y5194D03*
X1473Y5186D03*
X1573Y5194D03*
X1673Y5186D03*
X1773Y5194D03*
X1873Y5186D03*
X1973Y5194D03*
X2073Y5186D03*
X2073Y5078D03*
X1973Y5086D03*
X1873Y5078D03*
X1773Y5086D03*
X1673Y5078D03*
X1573Y5086D03*
X1473Y5078D03*
X1373Y5086D03*
X1273Y5078D03*
X1173Y5086D03*
X1073Y5078D03*
X973Y5086D03*
X2073Y4978D03*
X1973Y4986D03*
X1873Y4978D03*
X1773Y4986D03*
X1673Y4978D03*
X1573Y4986D03*
X1473Y4978D03*
X1373Y4986D03*
X1273Y4978D03*
X1173Y4986D03*
X1073Y4978D03*
X973Y4986D03*
X1973Y4478D03*
X1873Y4486D03*
X1773Y4478D03*
X1673Y4486D03*
X1573Y4478D03*
X1473Y4486D03*
X1373Y4478D03*
X1273Y4486D03*
X1173Y4478D03*
X1073Y4486D03*
X973Y4478D03*
X873Y4486D03*
X1773Y4878D03*
X1673Y4886D03*
X1573Y4878D03*
X1473Y4886D03*
X1373Y4878D03*
X1273Y4886D03*
X1173Y4878D03*
X1073Y4886D03*
X973Y4878D03*
X873Y4886D03*
X773Y4878D03*
X673Y4886D03*
X2073Y4378D03*
X1973Y4386D03*
X1873Y4378D03*
X1773Y4386D03*
X1673Y4378D03*
X1573Y4386D03*
X1473Y4378D03*
X1373Y4386D03*
X1273Y4378D03*
X1173Y4386D03*
X1073Y4378D03*
X973Y4386D03*
X1966Y5686D03*
X2073Y5686D03*
X2180Y5686D03*
G54D14*
X1373Y2586D03*
G54D15*
X551Y5486D03*
X673Y5486D03*
G54D16*
X1974Y4484D02*
X1973Y4314D01*
D02*
X1973Y4414D02*
X1974Y4484D01*
D02*
X773Y4849D02*
X772Y4688D01*
D02*
X1373Y4688D02*
X1373Y4414D01*
D02*
X1076Y4688D02*
X1373Y4688D01*
D02*
X772Y4688D02*
X1076Y4688D01*
D02*
X1073Y4686D02*
X1073Y5049D01*
D02*
X773Y4849D02*
X773Y4686D01*
D02*
X773Y4686D02*
X1073Y4686D01*
D02*
X699Y5486D02*
X1073Y5486D01*
D02*
X1073Y5486D02*
X1073Y5406D01*
D02*
X1073Y5186D02*
X1073Y5349D01*
D02*
X1073Y5278D02*
X1073Y5186D01*
D02*
X1073Y5086D02*
X1073Y5249D01*
D02*
X1073Y5106D02*
X1073Y5086D01*
G54D17*
D02*
X1573Y3891D02*
X1416Y3887D01*
D02*
X2176Y3887D02*
X1573Y3891D01*
G54D16*
D02*
X2173Y4286D02*
X2102Y4280D01*
D02*
X1973Y5486D02*
X2173Y5486D01*
D02*
X2173Y5486D02*
X2173Y4286D01*
D02*
X1967Y5655D02*
X1973Y5486D01*
D02*
X2073Y5586D02*
X2073Y5655D01*
D02*
X2273Y5586D02*
X2073Y5586D01*
D02*
X1373Y3918D02*
X1373Y4086D01*
D02*
X2273Y4086D02*
X2273Y5586D01*
D02*
X1373Y4086D02*
X2273Y4086D01*
D02*
X2073Y4187D02*
X2073Y4249D01*
D02*
X1857Y4193D02*
X2073Y4187D01*
D02*
X1871Y4349D02*
X1857Y4193D01*
D02*
X1857Y4193D02*
X871Y4187D01*
D02*
X871Y4187D02*
X873Y4457D01*
G54D17*
D02*
X1416Y2886D02*
X2176Y2886D01*
D02*
X359Y2886D02*
X1341Y2886D01*
D02*
X370Y1886D02*
X1330Y1886D01*
D02*
X1573Y2886D02*
X1573Y2326D01*
D02*
X1416Y2886D02*
X1573Y2886D01*
D02*
X1373Y2086D02*
X1373Y1929D01*
D02*
X1273Y2086D02*
X1373Y2086D01*
D02*
X1273Y2246D02*
X1273Y2086D01*
D02*
X1573Y1886D02*
X2176Y1886D01*
D02*
X1416Y1886D02*
X1573Y1886D01*
D02*
X1573Y1886D02*
X1573Y1326D01*
D02*
X359Y3886D02*
X1373Y3886D01*
D02*
X1573Y3891D02*
X1573Y3314D01*
D02*
X1373Y3086D02*
X1273Y3086D01*
D02*
X1273Y3086D02*
X1273Y3246D01*
D02*
X1373Y2929D02*
X1373Y3086D01*
D02*
X1273Y1086D02*
X1273Y1246D01*
D02*
X1373Y1086D02*
X1273Y1086D01*
D02*
X1373Y929D02*
X1373Y1086D01*
D02*
X1341Y886D02*
X359Y886D01*
D02*
X1405Y886D02*
X2187Y886D01*
G54D16*
D02*
X525Y5486D02*
X373Y5486D01*
D02*
X373Y5486D02*
X373Y5600D01*
G54D18*
X1342Y617D02*
X1404Y617D01*
X1404Y555D01*
X1342Y555D01*
X1342Y617D01*
D02*
X1342Y3617D02*
X1404Y3617D01*
X1404Y3555D01*
X1342Y3555D01*
X1342Y3617D01*
D02*
X1342Y1617D02*
X1404Y1617D01*
X1404Y1555D01*
X1342Y1555D01*
X1342Y1617D01*
D02*
G04 End of Copper0*
M02*