; NON-PLATED HOLES START AT T1
; THROUGH (PLATED) HOLES START AT T100
M48
INCH
T100C0.150000
T101C0.040000
T102C0.035000
T103C0.042000
%
T100
X022730Y018858
X002730Y033858
X022730Y008858
X002730Y023858
X002730Y013858
X002730Y038858
X002730Y003858
X002730Y028858
X002730Y018858
X022730Y033858
X002730Y008858
X022730Y023858
X003730Y056858
X022730Y038858
X022730Y013858
X022730Y003858
X022730Y028858
T101
X021800Y056858
X019660Y056858
X020730Y056858
T102
X014730Y051858
X012730Y022858
X015730Y048778
X016730Y053778
X014730Y043778
X019730Y052858
X009730Y051938
X012730Y052778
X016730Y048858
X017730Y042858
X010730Y042778
X015730Y032858
X019730Y044778
X014730Y050778
X013730Y052858
X009730Y043858
X011730Y042858
X014730Y049778
X013730Y044778
X009730Y050858
X010730Y044858
X009730Y049858
X008730Y044858
X017730Y051938
X020730Y052778
X010730Y051858
X019730Y053858
X012730Y053778
X018730Y052778
X017730Y043858
X011730Y051938
X010730Y043778
X016730Y042778
X015730Y052858
X012730Y048858
X013730Y053858
X009730Y048778
X011730Y043858
X017730Y050858
X015730Y044778
X010730Y050778
X017730Y049858
X010730Y049778
X016730Y044858
X011730Y050858
X011730Y049858
X020730Y053778
X016730Y051858
X012730Y012858
X017730Y048778
X018730Y053778
X016730Y043778
X015730Y053858
X014730Y052778
X019730Y042858
X011730Y048778
X012730Y042778
X015730Y022858
X016730Y050778
X013730Y042858
X009730Y052858
X016730Y049778
X006730Y048858
X012730Y044858
X009730Y044778
X019730Y051938
X012730Y032858
X012730Y051858
X020730Y042778
X014730Y053778
X019730Y043858
X013730Y051938
X012730Y043778
X018730Y042778
X017730Y052858
X010730Y052778
X014730Y048858
X015730Y042858
X013730Y043858
X019730Y050858
X009730Y053858
X017730Y044778
X012730Y050778
X011730Y052858
X019730Y049858
X012730Y049778
X018730Y044858
X013730Y050858
X011730Y044778
X020730Y051858
X013730Y049858
X018730Y051858
X020730Y043778
X015730Y051938
X018730Y043778
X017730Y053858
X020730Y050778
X010730Y053778
X016730Y052778
X015730Y043858
X013730Y048778
X014730Y042778
X020730Y049778
X018730Y050778
X010730Y048858
X011730Y053858
X007730Y048778
X015730Y012858
X015730Y050858
X018730Y049778
X008730Y048858
X009730Y042858
X015730Y049858
X014730Y044858
T103
X013730Y028858
X013730Y015858
X013730Y018858
X013730Y005858
X013730Y008858
X013730Y035858
X013730Y025858
X013730Y038858
T00
M30
